<svg width="397" height="433" viewBox="0 0 397 433" fill="none" xmlns="http://www.w3.org/2000/svg">
<path fill-rule="evenodd" clip-rule="evenodd" d="M3.5939 224.406C0.364404 183.345 -4.91427 140.947 10.1206 103.462C26.2203 63.3225 53.6686 27.3604 89.403 10.4668C124.691 -6.21564 165.487 -1.12372 201.647 12.9172C234.275 25.5868 252.573 62.5351 280.957 84.8475C314.161 110.949 362.832 114.642 382.308 154.932C402.299 196.287 401.609 252.199 381.945 293.758C362.886 334.037 315.728 340.375 282.462 365.947C254.223 387.654 235.104 428.651 201.24 432.665C167.512 436.663 140.426 403.912 110.201 386.366C81.4401 369.669 47.4896 361.601 28.1077 332.156C8.17547 301.875 6.5609 262.129 3.5939 224.406Z" fill="#B50D0D"/>
</svg>
