<svg width="420" height="455" viewBox="0 0 420 455" fill="none" xmlns="http://www.w3.org/2000/svg">
<path fill-rule="evenodd" clip-rule="evenodd" d="M206.623 4.0913C246.181 -7.24532 291.957 6.05355 324.988 30.7286C357.23 54.8145 365.268 98.4475 382.073 135.158C397.402 168.643 421.056 200.315 419.484 237.151C417.929 273.571 393.585 303.823 373.576 334.203C354.589 363.031 333.68 389.862 305.692 409.921C275.785 431.355 243.216 456.797 206.623 453.856C170.195 450.929 149.025 411.042 116.282 394.701C80.5804 376.884 25.8846 388.544 6.04161 353.752C-13.8153 318.936 21.1887 276.952 26.4254 237.151C30.8647 203.41 16.1766 165.69 34.5446 137.118C52.856 108.635 94.9408 109.659 121.67 88.996C153.866 64.1065 167.583 15.2797 206.623 4.0913Z" fill="#B50D0D"/>
</svg>
