<svg width="414" height="387" viewBox="0 0 414 387" fill="none" xmlns="http://www.w3.org/2000/svg">
<path fill-rule="evenodd" clip-rule="evenodd" d="M37.8487 209.333C27.6402 169.243 -12.4075 130.98 3.82543 92.217C20.1817 53.159 71.7496 29.9661 119.201 15.0675C165.146 0.641968 220.241 -7.93289 263.915 10.5556C306.265 28.4838 310.485 75.5645 337.527 107.492C356.225 129.569 385.241 144.34 398.114 169.002C412.066 195.73 415.121 224.369 413.674 253.368C411.849 289.927 422.389 334.688 388.633 358.981C354.941 383.228 301.284 362.265 256.527 366.461C213.44 370.501 170.763 396.666 130.715 383.164C90.6245 369.648 73.7384 331.315 56.4848 299.018C41.3154 270.623 45.5653 239.637 37.8487 209.333Z" fill="#B50D0D"/>
</svg>
