<svg width="449" height="442" viewBox="0 0 449 442" fill="none" xmlns="http://www.w3.org/2000/svg">
<path fill-rule="evenodd" clip-rule="evenodd" d="M0.717215 212.497C-1.74163 165.296 0.339656 108.999 36.1811 78.1719C72.5689 46.8746 130.634 76.3346 176.283 61.4926C214.089 49.2008 236.292 -4.21277 275.794 0.2659C315.085 4.72079 334.125 50.8248 358.275 82.1268C378.096 107.818 389.855 136.643 403.663 166.005C420.251 201.279 456.837 234.014 447.497 271.856C438.208 309.493 389.049 319.175 359.625 344.425C330.38 369.522 310.617 404.879 275.086 419.811C233.534 437.275 185.878 450.618 143.502 435.258C100.309 419.602 74.5098 376.794 49.7226 338.123C24.9637 299.497 3.10375 258.311 0.717215 212.497Z" fill="#B50D0D"/>
</svg>
