<svg width="398" height="431" viewBox="0 0 398 431" fill="none" xmlns="http://www.w3.org/2000/svg">
<path fill-rule="evenodd" clip-rule="evenodd" d="M204.083 34.9495C233.234 40.3737 263.29 30.3097 292 37.5913C323.631 45.6138 362.031 52.1685 378.69 79.2345C395.857 107.126 373.214 142.987 376.708 175.22C379.725 203.055 400.186 227.713 397.808 255.605C395.339 284.581 376.28 308.838 363.09 335C347.048 366.816 344.7 412.327 311.313 427.158C277.746 442.069 240.895 409.001 204.083 405.634C171.191 402.626 135.351 423.44 106.247 408.404C76.9631 393.276 72.5213 354.692 54.0459 328.123C37.0992 303.753 7.93062 286.205 1.36591 257.578C-5.19453 228.969 13.7635 201.303 18.3216 172.337C23.2453 141.048 15.9542 108.073 29.4351 79.2035C44.0951 47.809 63.4771 10.281 98.0912 1.51017C134.504 -7.71649 167.113 28.0703 204.083 34.9495Z" fill="#B50D0D"/>
</svg>
