<svg width="552" height="593" viewBox="0 0 552 593" fill="none" xmlns="http://www.w3.org/2000/svg">
<path d="M81.0706 590.015L188.809 432.681L440.08 420.548L547.418 491.677L397.519 332.998L530.601 143.422L390.735 192.517L448.865 3.6068L306.207 78.4378L270.392 12.2248L217.912 116.18L111.378 19.9032L144.335 145.335L8.96551 210.952L152.328 310.866L81.0706 590.015Z" fill="#B50D0D" stroke="#B50D0D"/>
<path d="M81.0706 590.015L188.809 432.681L440.08 420.548L547.418 491.677L397.519 332.998L530.601 143.422L390.735 192.517L448.865 3.6068L306.207 78.4378L270.392 12.2248L217.912 116.18L111.378 19.9032L144.335 145.335L8.96551 210.952L152.328 310.866L81.0706 590.015Z" fill="#B50D0D" stroke="#B50D0D"/>
<path d="M259 53.9922L271 28.9922L283 53.9922" stroke="white" stroke-width="3"/>
<path d="M327 76.4922L436.5 18.9922L386.5 200.992L516.5 156.992L393 336.492L467 420.492" stroke="white" stroke-width="3"/>
<path d="M130 420.992L160.5 309.492L21 214.492L151.5 150.492L118.5 36.9922L190.5 97.9922" stroke="white" stroke-width="3"/>
</svg>
