<svg width="124" height="92" viewBox="0 0 124 92" fill="none" xmlns="http://www.w3.org/2000/svg">
<path fill-rule="evenodd" clip-rule="evenodd" d="M61.6955 20.1675C67.6665 12.5219 78.0879 0.449726 95.7301 0.27277C113.551 0.0940194 123.125 12.8765 123.243 24.6037C123.398 40.0335 113.593 53.3958 101.183 64.411C88.7537 75.4419 73.4439 84.2791 62.4024 90.6425C51.2351 84.5019 35.7513 75.9735 23.1034 65.1941C10.4744 54.4301 0.403839 41.2672 0.249074 25.8373C0.131447 14.1101 9.44784 1.1382 27.2688 0.959454C44.9106 0.782502 55.5725 12.6433 61.6955 20.1675Z" fill="white"/>
<path d="M29.5861 36.5552L37.5342 36.4755L37.648 47.821L35.3572 47.844L35.2627 38.4177L31.8497 38.452L31.8983 43.2967C31.9122 44.6846 31.8755 45.655 31.7882 46.208C31.7008 46.7558 31.4781 47.1863 31.12 47.4995C30.7671 47.8075 30.2088 47.9653 29.4452 47.973C29.1769 47.9756 28.6891 47.9547 27.9817 47.9102L27.964 46.138L28.4748 46.1406C28.9546 46.1358 29.2765 46.0681 29.4403 45.9374C29.6041 45.8068 29.6834 45.4886 29.6784 44.983L29.6511 43.0328L29.5861 36.5552ZM39.9101 36.4516L42.2009 36.4287L42.2484 41.165L44.0903 41.1465C44.2104 39.747 44.6914 38.5709 45.5332 37.6181C46.3751 36.6654 47.6086 36.1809 49.2338 36.1646C50.7971 36.1489 52.0456 36.6421 52.9793 37.6441C53.9129 38.6461 54.3892 40.0861 54.408 41.9641C54.4203 43.192 54.2297 44.244 53.836 45.12C53.4422 45.9908 52.8789 46.6698 52.1459 47.157C51.418 47.639 50.5072 47.8855 49.4134 47.8965C48.2989 47.9077 47.4098 47.7412 46.7458 47.3969C46.0871 47.0527 45.5061 46.4909 45.0029 45.7117C44.5049 44.9323 44.2071 44.0452 44.1094 43.0503L42.2675 43.0688L42.3147 47.7742L40.0239 47.7972L39.9101 36.4516ZM46.3906 42.0755C46.4032 43.3344 46.6632 44.3044 47.1706 44.9856C47.6779 45.6616 48.3855 45.9951 49.2936 45.986C50.2275 45.9766 50.9232 45.6316 51.3807 44.9511C51.8434 44.2653 52.0679 43.244 52.0543 41.8871C52.0413 40.5869 51.7609 39.6377 51.2131 39.0395C50.6704 38.4412 49.9786 38.1463 49.1377 38.1547C48.3173 38.163 47.6497 38.4767 47.1347 39.0959C46.6249 39.7099 46.3768 40.7031 46.3906 42.0755ZM56.2938 36.2873L64.7759 36.2022L64.795 38.106L58.6037 38.1681L58.6301 40.7995L61.6948 40.7687C62.5409 40.7602 63.2436 40.8564 63.8029 41.0572C64.3622 41.2579 64.8407 41.635 65.2384 42.1883C65.6413 42.7415 65.8464 43.3922 65.854 44.1403C65.8617 44.909 65.6696 45.5689 65.2778 46.1197C64.886 46.6706 64.4358 47.0492 63.927 47.2556C63.4234 47.4619 62.7021 47.5697 61.7631 47.5791L56.4076 47.6329L56.2938 36.2873ZM58.6793 45.7061L60.9082 45.6837C61.6202 45.6766 62.1203 45.638 62.4085 45.568C62.6967 45.4929 62.9454 45.3304 63.1544 45.0807C63.3686 44.8308 63.4739 44.5254 63.4703 44.1642C63.465 43.6379 63.2729 43.258 62.8939 43.0245C62.5199 42.7857 61.8815 42.6709 60.9786 42.6799L58.6492 42.7033L58.6793 45.7061ZM67.2326 41.9206C67.221 40.7649 67.3841 39.7932 67.7219 39.0055C67.9741 38.425 68.3198 37.903 68.7589 37.4394C69.2031 36.9757 69.6899 36.6302 70.219 36.403C70.9229 36.0967 71.7366 35.9389 72.6601 35.9296C74.3318 35.9129 75.6732 36.418 76.6846 37.445C77.7011 38.472 78.2186 39.909 78.2371 41.756C78.2555 43.5876 77.772 45.0269 76.7866 46.074C75.8012 47.1158 74.4752 47.6451 72.8087 47.6618C71.1216 47.6788 69.775 47.1789 68.769 46.1621C67.7628 45.1402 67.2507 43.7264 67.2326 41.9206ZM69.5923 41.8195C69.6052 43.1042 69.9116 44.0764 70.5116 44.736C71.1116 45.3904 71.8681 45.7131 72.7814 45.7039C73.6946 45.6948 74.4394 45.3596 75.0159 44.6985C75.5974 44.0322 75.8816 43.0413 75.8684 41.7256C75.8553 40.4254 75.5593 39.4583 74.9802 38.8243C74.4062 38.1902 73.6471 37.8779 72.703 37.8874C71.7588 37.8969 71.001 38.2296 70.4297 38.8854C69.8583 39.5362 69.5792 40.5142 69.5923 41.8195ZM79.9833 36.0497L84.5184 36.0042C85.4161 35.9952 86.0846 36.0272 86.524 36.1002C86.9684 36.168 87.3647 36.3188 87.7127 36.5527C88.0659 36.7865 88.3606 37.1009 88.5968 37.4958C88.8329 37.8856 88.9534 38.3255 88.9583 38.8157C88.9637 39.3471 88.8241 39.8361 88.5396 40.2827C88.2603 40.7293 87.8767 41.066 87.3887 41.2927C88.0821 41.487 88.617 41.8248 88.9933 42.306C89.3697 42.7873 89.5611 43.3555 89.5677 44.0108C89.5729 44.5267 89.4567 45.031 89.2191 45.5236C88.9866 46.0109 88.6629 46.4038 88.248 46.702C87.8381 46.9951 87.3291 47.1782 86.721 47.2514C86.3396 47.2965 85.4189 47.3315 83.9589 47.3565L80.0971 47.3952L79.9833 36.0497ZM82.293 37.9151L82.3193 40.5386L83.8207 40.5236C84.7133 40.5146 85.2678 40.4961 85.4842 40.4682C85.8759 40.4178 86.1815 40.2806 86.4011 40.0565C86.6259 39.8272 86.7364 39.5294 86.7327 39.1631C86.7292 38.8123 86.6283 38.5295 86.4301 38.3147C86.237 38.0948 85.9493 37.9635 85.567 37.9209C85.3397 37.8974 84.6869 37.891 83.6086 37.9019L82.293 37.9151ZM82.3382 42.427L82.3687 45.4607L84.4892 45.4394C85.3147 45.4312 85.8381 45.4027 86.0595 45.354C86.3994 45.2887 86.6739 45.1363 86.8831 44.8968C87.0974 44.6522 87.2025 44.3286 87.1984 43.9262C87.195 43.5857 87.1096 43.2976 86.9421 43.0619C86.7746 42.8262 86.533 42.6558 86.2172 42.5506C85.9065 42.4454 85.2301 42.398 84.1879 42.4084L82.3382 42.427ZM91.4758 35.9344L93.7666 35.9114L93.8121 40.4466L96.8768 40.4158C98.3214 40.4013 99.3696 40.7288 100.021 41.3982C100.678 42.0676 101.011 42.8743 101.021 43.8185C101.029 44.5924 100.839 45.2522 100.452 45.7979C100.066 46.3436 99.6206 46.717 99.1169 46.9181C98.6184 47.114 97.8945 47.2167 96.9451 47.2263L91.5896 47.28L91.4758 35.9344ZM93.8613 45.3532L96.0902 45.3308C96.8125 45.3236 97.3126 45.285 97.5906 45.2151C97.8685 45.1401 98.1145 44.9777 98.3287 44.7279C98.5481 44.478 98.656 44.1725 98.6523 43.8113C98.6471 43.2902 98.455 42.9103 98.0759 42.6716C97.702 42.4328 97.0636 42.318 96.1607 42.327L93.8312 42.3504L93.8613 45.3532Z" fill="#B50D0D"/>
</svg>
