<svg width="125" height="92" viewBox="0 0 125 92" fill="none" xmlns="http://www.w3.org/2000/svg">
<path fill-rule="evenodd" clip-rule="evenodd" d="M61.7685 20.4171C67.709 12.7479 78.0822 0.634212 95.7235 0.386976C113.544 0.137232 123.169 12.8815 123.333 24.6081C123.549 40.0372 113.798 53.4384 101.431 64.5029C89.0467 75.5833 73.7722 84.4814 62.7561 90.8888C51.5644 84.7927 36.0468 76.3261 23.3561 65.5971C10.6843 54.8835 0.561396 41.7608 0.345163 26.3317C0.180819 14.6051 9.44546 1.59613 27.2656 1.34638C44.9066 1.09915 55.6156 12.9173 61.7685 20.4171Z" fill="white"/>
<path d="M20.6785 37.0641L25.2134 37.0005C26.1111 36.988 26.7797 37.0173 27.2193 37.0885C27.664 37.1545 28.0609 37.3038 28.4099 37.5363C28.764 37.7687 29.06 38.0819 29.2977 38.4759C29.5354 38.8647 29.6576 39.3042 29.6645 39.7943C29.6719 40.3257 29.5343 40.8153 29.2516 41.263C28.9741 41.7107 28.5918 42.0489 28.1048 42.2776C28.7989 42.4691 29.3351 42.8047 29.7134 43.2845C30.0917 43.7643 30.2854 44.3317 30.2946 44.987C30.3018 45.5029 30.1876 46.0076 29.952 46.5011C29.7215 46.9894 29.3993 47.3835 28.9855 47.6834C28.5769 47.9781 28.0686 48.1633 27.4608 48.2389C27.0796 48.2855 26.159 48.3242 24.6991 48.355L20.8375 48.4091L20.6785 37.0641ZM22.9956 38.9203L23.0324 41.5437L24.5337 41.5226C25.4262 41.5101 25.9807 41.4895 26.197 41.4606C26.5884 41.4087 26.8935 41.2703 27.1122 41.0453C27.3361 40.8151 27.4454 40.5169 27.4403 40.1506C27.4354 39.7998 27.3334 39.5174 27.1343 39.3034C26.9403 39.0843 26.6521 38.9541 26.2696 38.9131C26.0423 38.8905 25.3895 38.8867 24.3112 38.9018L22.9956 38.9203ZM23.0588 43.4319L23.1013 46.4655L25.2218 46.4358C26.0472 46.4242 26.5706 46.3937 26.7918 46.3441C27.1314 46.2775 27.4053 46.124 27.6135 45.8837C27.8268 45.6382 27.9306 45.3142 27.925 44.9118C27.9202 44.5713 27.8336 44.2835 27.6652 44.0485C27.4968 43.8135 27.2545 43.6441 26.9382 43.5401C26.6272 43.4361 25.9505 43.3914 24.9084 43.406L23.0588 43.4319ZM32.2831 48.2487L32.1241 36.9037L40.5361 36.7858L40.563 38.705L34.4416 38.7908L34.4769 41.3059L40.1726 41.2261L40.1994 43.1375L34.5037 43.2174L34.547 46.3051L40.885 46.2163L40.9118 48.1278L32.2831 48.2487ZM42.8542 48.1005L42.6952 36.7555L46.3711 36.704C47.7641 36.6845 48.6729 36.7285 49.0975 36.8361C49.75 36.9972 50.2995 37.3611 50.746 37.9276C51.1925 38.489 51.4221 39.2211 51.4347 40.1239C51.4445 40.8204 51.3263 41.4077 51.0802 41.8859C50.834 42.3641 50.5168 42.7427 50.1285 43.0216C49.7454 43.2953 49.3532 43.4788 48.952 43.5722C48.4066 43.6882 47.6155 43.7535 46.5785 43.768L45.0849 43.7889L45.1449 48.0684L42.8542 48.1005ZM45.0128 38.6427L45.0579 41.862L46.3116 41.8444C47.2144 41.8317 47.8172 41.764 48.1199 41.641C48.4227 41.5181 48.6574 41.329 48.8241 41.0739C48.996 40.8186 49.0796 40.5233 49.0749 40.188C49.0691 39.7752 48.9431 39.4364 48.6968 39.1715C48.4506 38.9067 48.1413 38.7433 47.7689 38.6814C47.4947 38.6337 46.9449 38.6156 46.1194 38.6271L45.0128 38.6427ZM53.4331 47.9523L53.2741 36.6073L55.5648 36.5752L55.6273 41.0404L60.1158 40.9775L60.0532 36.5123L62.3439 36.4802L62.5029 47.8252L60.2122 47.8573L60.1427 42.8967L55.6542 42.9597L55.7238 47.9202L53.4331 47.9523ZM64.3358 42.1955C64.3197 41.0399 64.4789 40.0675 64.8136 39.2785C65.0634 38.6971 65.407 38.1736 65.8442 37.7083C66.2866 37.2428 66.772 36.8954 67.3003 36.6661C68.0029 36.357 68.8159 36.196 69.7394 36.183C71.411 36.1596 72.7545 36.6594 73.7699 37.6823C74.7905 38.7052 75.3137 40.1402 75.3396 41.9871C75.3653 43.8186 74.8875 45.2599 73.9063 46.3108C72.9251 47.3566 71.6012 47.8912 69.9348 47.9145C68.2478 47.9382 66.8992 47.4436 65.8891 46.4309C64.8789 45.413 64.3612 44.0012 64.3358 42.1955ZM66.6951 42.0851C66.7131 43.3697 67.0234 44.3406 67.626 44.9978C68.2286 45.6499 68.9865 45.9695 69.8996 45.9567C70.8128 45.9439 71.5563 45.6058 72.1301 44.9425C72.709 44.2738 72.9892 43.2817 72.9708 41.9662C72.9526 40.6661 72.6526 39.7001 72.071 39.0684C71.4945 38.4366 70.7342 38.1274 69.7901 38.1406C68.846 38.1538 68.0895 38.4895 67.5208 39.1477C66.952 39.8007 66.6768 40.7798 66.6951 42.0851ZM84.4147 43.3461L86.6456 44.0192C86.3225 45.2622 85.7679 46.191 84.9818 46.8058C84.2009 47.4153 83.2016 47.7286 81.984 47.7457C80.4776 47.7668 79.2322 47.2708 78.2479 46.2577C77.2635 45.2395 76.7588 43.8378 76.7338 42.0527C76.7073 40.1645 77.1743 38.6925 78.1348 37.6366C79.0952 36.5757 80.3699 36.034 81.9589 36.0118C83.3467 35.9923 84.4798 36.3867 85.358 37.1948C85.8807 37.6726 86.2774 38.3636 86.5481 39.268L84.2882 39.8415C84.1459 39.2553 83.8582 38.7949 83.4252 38.4604C82.9974 38.1258 82.4791 37.9628 81.8703 37.9713C81.0293 37.9831 80.35 38.2945 79.8322 38.9055C79.3196 39.5164 79.0727 40.4977 79.0917 41.8494C79.1118 43.2837 79.3841 44.3016 79.9085 44.9031C80.433 45.5047 81.1079 45.7997 81.9334 45.7881C82.5422 45.7796 83.0631 45.5788 83.4962 45.1857C83.9293 44.7926 84.2355 44.1794 84.4147 43.3461ZM90.819 47.4283L90.6869 38.0025L87.3205 38.0497L87.2936 36.1305L96.3093 36.0042L96.3362 37.9234L92.9776 37.9704L93.1096 47.3962L90.819 47.4283ZM97.8415 35.9827L100.132 35.9506L100.196 40.4855L103.26 40.4425C104.705 40.4223 105.754 40.7456 106.409 41.4124C107.068 42.0791 107.405 42.8846 107.418 43.8287C107.429 44.6026 107.242 45.2631 106.857 45.8103C106.473 46.3575 106.029 46.7327 105.526 46.9358C105.029 47.1337 104.305 47.2393 103.356 47.2526L98.0005 47.3277L97.8415 35.9827ZM100.265 45.3919L102.493 45.3606C103.216 45.3505 103.716 45.31 103.993 45.239C104.271 45.1629 104.516 44.9994 104.729 44.7488C104.948 44.498 105.054 44.1921 105.049 43.8309C105.042 43.3099 104.848 42.9307 104.468 42.6935C104.094 42.4562 103.455 42.3439 102.552 42.3566L100.222 42.3892L100.265 45.3919Z" fill="#B50D0D"/>
</svg>
