<svg width="124" height="91" viewBox="0 0 124 91" fill="none" xmlns="http://www.w3.org/2000/svg">
<path fill-rule="evenodd" clip-rule="evenodd" d="M61.6036 19.8714C67.6111 12.2545 78.0901 0.232292 95.733 0.13975C113.555 0.0462691 123.068 12.8744 123.129 24.602C123.21 40.0325 113.342 53.3476 100.879 64.3033C88.397 75.2747 73.0451 84.0385 61.9733 90.349C50.8355 84.155 35.3927 75.5527 22.7965 64.7129C10.2192 53.8885 0.211697 40.6776 0.130759 25.2472C0.0692445 13.5196 9.44759 0.592343 27.2692 0.498863C44.9117 0.406323 55.5167 12.318 61.6036 19.8714Z" fill="white"/>
<path d="M17.928 33.6349L20.4897 33.6215L23.1675 39.4973L25.3965 33.5958L27.788 33.5832L24.0022 42.225C23.5892 43.1611 23.1672 43.8754 22.7364 44.3678C22.3055 44.8551 21.747 45.1005 21.0608 45.1041C20.3849 45.1076 19.8558 45.0666 19.4735 44.9809L19.4646 43.2782C19.7897 43.2971 20.0839 43.3059 20.347 43.3045C20.8785 43.3017 21.2572 43.2043 21.4832 43.0122C21.7144 42.8149 21.934 42.3958 22.1422 41.7549L17.928 33.6349ZM28.9489 33.5771L33.4842 33.5533C34.382 33.5486 35.0503 33.5838 35.4893 33.6589C35.9334 33.7288 36.3289 33.8815 36.6759 34.1171C37.028 34.3526 37.3211 34.6684 37.5554 35.0644C37.7896 35.4553 37.9081 35.8959 37.9106 36.386C37.9134 36.9175 37.7715 37.4058 37.4849 37.8511C37.2034 38.2963 36.8182 38.6311 36.3292 38.8555C37.0217 39.0531 37.5549 39.3935 37.9289 39.8765C38.303 40.3596 38.4917 40.9287 38.4951 41.584C38.4978 42.1 38.3792 42.6037 38.1393 43.0951C37.9045 43.5813 37.5789 43.9726 37.1625 44.2689C36.7513 44.56 36.2414 44.7407 35.6329 44.811C35.2513 44.8542 34.3305 44.8849 32.8704 44.9028L29.0084 44.9231L28.9489 33.5771ZM31.2497 35.4535L31.2634 38.0772L32.7649 38.0693C33.6575 38.0646 34.2121 38.0488 34.4286 38.0219C34.8205 37.9734 35.1268 37.8376 35.3475 37.6146C35.5733 37.3864 35.6853 37.0891 35.6834 36.7228C35.6815 36.3719 35.582 36.0887 35.3848 35.873C35.1927 35.6521 34.9057 35.5195 34.5236 35.4751C34.2965 35.4505 33.6437 35.441 32.5654 35.4466L31.2497 35.4535ZM31.2733 39.9656L31.2892 42.9995L33.4098 42.9883C34.2354 42.984 34.759 42.958 34.9806 42.9104C35.3208 42.8467 35.596 42.6957 35.8063 42.4572C36.0218 42.2136 36.1284 41.8905 36.1263 41.4881C36.1245 41.1475 36.0405 40.859 35.8741 40.6226C35.7078 40.3861 35.4669 40.2145 35.1516 40.1078C34.8415 40.0011 34.1653 39.9504 33.123 39.9559L31.2733 39.9656ZM49.8971 44.8135L47.405 44.8266L46.4008 42.2546L41.8655 42.2784L40.9426 44.8605L38.5124 44.8732L42.8721 33.5041L45.2945 33.4914L49.8971 44.8135ZM45.6555 40.3468L44.0701 36.1448L42.5598 40.363L45.6555 40.3468ZM58.1884 33.4238L58.2137 38.2532C58.5953 38.2202 58.8835 38.0768 59.0783 37.8229C59.273 37.5691 59.5409 36.9898 59.8818 36.0851C60.3297 34.9011 60.7901 34.1454 61.2631 33.8178C61.7309 33.4955 62.5117 33.3314 63.6056 33.3257C63.6572 33.3254 63.7681 33.3223 63.9383 33.3162L63.9472 35.0111L63.6144 35.0051C63.15 35.0076 62.8098 35.0687 62.5937 35.1885C62.3776 35.3032 62.2031 35.4795 62.0702 35.7175C61.9373 35.9556 61.7412 36.4442 61.4819 37.1834C61.3447 37.5763 61.1942 37.9047 61.0305 38.1687C60.8719 38.4327 60.5868 38.6819 60.1753 38.9162C60.6869 39.0632 61.1089 39.3551 61.4414 39.7919C61.7791 40.2235 62.1487 40.8382 62.5501 41.6358L64.1143 44.739L61.421 44.7531L60.0435 41.827C60.0278 41.7858 59.9835 41.7061 59.9107 41.5878C59.869 41.5106 59.7752 41.3331 59.6293 41.0552C59.3375 40.515 59.0983 40.1705 58.9118 40.0219C58.7253 39.8732 58.4953 39.7996 58.2218 39.801L58.2479 44.7697L56.0112 44.7815L55.9851 39.8128C55.722 39.8141 55.4953 39.8876 55.3052 40.033C55.115 40.1785 54.8795 40.528 54.5986 41.0816C54.4403 41.392 54.3458 41.5705 54.3151 41.6171C54.2691 41.6948 54.2256 41.775 54.1848 41.8577L52.838 44.7981L50.1447 44.8122L51.6763 41.6929C52.0541 40.9221 52.4095 40.3114 52.7425 39.8607C53.0806 39.4049 53.5099 39.1008 54.0302 38.9484C53.6162 38.7184 53.326 38.4749 53.1595 38.2177C52.9982 37.9554 52.8443 37.626 52.6977 37.2295C52.4359 36.5085 52.2373 36.0271 52.1019 35.7853C51.9717 35.5435 51.7953 35.3638 51.5728 35.2463C51.3555 35.1288 50.9992 35.0713 50.5038 35.0739C50.4419 35.0742 50.3439 35.0773 50.2098 35.0832L50.2009 33.3883C50.3712 33.3925 50.4821 33.3945 50.5337 33.3943C51.643 33.3884 52.4333 33.5468 52.9045 33.8694C53.3706 34.1972 53.8312 34.9455 54.2862 36.1144C54.6418 37.0207 54.9158 37.5997 55.108 37.8515C55.3054 38.0981 55.595 38.2359 55.977 38.2649L55.9517 33.4355L58.1884 33.4238ZM65.4533 44.7319L65.3937 33.386L73.8065 33.3418L73.8165 35.2612L67.6947 35.2933L67.7079 37.8086L73.4041 37.7788L73.4141 39.6904L67.7179 39.7203L67.7341 42.8083L74.0727 42.775L74.0827 44.6867L65.4533 44.7319ZM76.033 44.6764L75.9735 33.3305L78.2644 33.3185L78.2878 37.7841L82.7766 37.7606L82.7532 33.2949L85.0441 33.2829L85.1036 44.6289L82.8127 44.6409L82.7867 39.6799L78.2979 39.7035L78.3239 44.6644L76.033 44.6764ZM87.451 33.2703L89.5949 33.259L89.6345 40.8127L94.1921 33.2349L96.4752 33.2229L96.5347 44.5689L94.3909 44.5801L94.352 37.1735L89.8014 44.6042L87.5106 44.6162L87.451 33.2703ZM98.872 44.5566L98.8125 33.2107L107.225 33.1666L107.235 35.0859L101.113 35.118L101.127 37.6333L106.823 37.6035L106.833 39.5151L101.137 39.545L101.153 42.633L107.491 42.5997L107.501 44.5114L98.872 44.5566Z" fill="#B50D0D"/>
</svg>
