<svg width="784" height="580" viewBox="0 0 784 580" fill="none" xmlns="http://www.w3.org/2000/svg">
<path d="M702.238 0.375L530.738 154.875H156.238L1.73828 77.375L213.238 245.875L1.73828 431.875L213.238 388.875L113.238 577.875L330.738 508.875L379.238 577.875L464.738 474.875L616.238 577.875L576.238 448.875L782.238 388.875L576.238 280.375L702.238 0.375Z" fill="white" stroke="white"/>
<path d="M165.738 165.375L29.7383 93.875L215.738 246.375L10.7383 428.375L219.238 382.375L120.738 572.375L331.238 502.875L379.238 572.375L464.738 470.875L606.238 566.875L572.238 448.375L769.738 388.875L572.238 279.875L692.738 15.875L537.238 153.375" stroke="#B50D0D" stroke-width="3"/>
</svg>
