<svg width="675" height="604" viewBox="0 0 675 604" fill="none" xmlns="http://www.w3.org/2000/svg">
<path d="M1.41016 0.34375L191.41 200.844L387.41 300.344L552.91 238.344L673.91 200.844L462.41 379.344L642.91 602.344L274.91 502.844L23.4102 602.344L191.41 463.344L1.41016 364.344L191.41 317.844L1.41016 0.34375Z" fill="white" stroke="white"/>
<path d="M297.65 561.344L216.899 488.582L213.41 480.55L257.275 461.651L269.736 458.344H283.693L297.65 461.651H306.124L319.582 464.958L334.536 468.266L353.976 471.101L375.41 480.55L297.65 561.344Z" fill="white" stroke="white"/>
<path d="M182.91 201.344L11.9102 13.8438L197.41 320.844L11.9102 365.844L197.41 463.344L42.4102 591.344L245.41 507.344L295.41 553.344L341.41 507.344L624.91 591.344L459.41 379.344L652.41 214.844L556.41 246.844" stroke="#B50D0D" stroke-width="3"/>
</svg>
