<svg width="125" height="104" viewBox="0 0 125 104" fill="none" xmlns="http://www.w3.org/2000/svg">
<path fill-rule="evenodd" clip-rule="evenodd" d="M61.8842 23.1606C67.7779 14.493 78.0771 0.800574 95.7174 0.485783C113.537 0.167799 123.24 14.5314 123.476 27.7657C123.787 45.1785 114.117 60.3228 101.818 72.8353C89.5009 85.3657 74.2805 95.439 63.3034 102.693C52.0741 95.8353 36.5043 86.3114 23.7475 74.2285C11.0098 62.1628 0.80629 47.3731 0.495558 29.9603C0.259392 16.726 9.44459 2.02532 27.2636 1.70734C44.9035 1.39256 55.6852 14.7088 61.8842 23.1606Z" fill="white"/>
<path d="M25.5705 40.1862L33.4094 40.0463L33.5778 49.487L34.5761 49.4692L34.6542 53.849L32.7506 53.883L32.7064 51.4068L25.564 51.5342L25.6082 54.0105L23.7046 54.0444L23.6264 49.6646L24.586 49.6474C25.0381 48.6692 25.3276 47.5391 25.4544 46.257C25.581 44.9698 25.6269 43.346 25.5919 41.3856L25.5705 40.1862ZM27.7867 42.0508C27.8482 45.497 27.5809 48.0149 26.9848 49.6046L31.2951 49.5277L31.1606 41.9906L27.7867 42.0508ZM35.5934 45.7509C35.5728 44.5954 35.7283 43.6224 36.06 42.8321C36.3076 42.2497 36.6492 41.725 37.0846 41.2579C37.5253 40.7908 38.0093 40.4415 38.5367 40.2102C39.2381 39.8984 40.0505 39.7343 40.974 39.7178C42.6454 39.688 43.9908 40.1826 45.0101 41.2016C46.0346 42.2206 46.5633 43.6535 46.5963 45.5004C46.629 47.3318 46.1567 48.7748 45.1796 49.8295C44.2023 50.8791 42.8806 51.4187 41.2143 51.4485C39.5273 51.4786 38.1769 50.9892 37.1629 49.9803C36.1488 48.9663 35.6257 47.5565 35.5934 45.7509ZM37.9522 45.6314C37.9752 46.916 38.2892 47.8857 38.8943 48.5406C39.4994 49.1904 40.2585 49.5071 41.1716 49.4908C42.0847 49.4745 42.8269 49.1336 43.3981 48.468C43.9745 47.7972 44.2509 46.804 44.2274 45.4885C44.2042 44.1885 43.9006 43.2237 43.3165 42.5942C42.7377 41.9647 41.9762 41.6583 41.0321 41.6751C40.088 41.692 39.3329 42.0306 38.7667 42.6909C38.2004 43.3461 37.9289 44.3263 37.9522 45.6314ZM48.2978 39.7806L52.8325 39.6997C53.7301 39.6837 54.3989 39.7104 54.8387 39.78C55.2837 39.8443 55.6811 39.992 56.031 40.2232C56.386 40.4542 56.6832 40.7663 56.9224 41.1594C57.1615 41.5473 57.2855 41.9863 57.2942 42.4764C57.3037 43.0078 57.168 43.4978 56.887 43.9467C56.6112 44.3954 56.2302 44.735 55.7441 44.9656C56.4389 45.1545 56.9764 45.4881 57.3565 45.9664C57.7366 46.4447 57.9325 47.0114 57.9442 47.6666C57.9534 48.1825 57.8411 48.6876 57.6074 49.182C57.3788 49.6712 57.0581 50.0665 56.6455 50.368C56.2379 50.6643 55.7304 50.8514 55.1228 50.9293C54.7418 50.9774 53.8214 51.0196 52.3617 51.056L48.5003 51.1249L48.2978 39.7806ZM50.622 41.6279L50.6689 44.2511L52.1701 44.2244C53.0626 44.2084 53.6169 44.1856 53.8331 44.156C54.2244 44.1025 54.5289 43.9629 54.7468 43.7372C54.9697 43.5061 55.0779 43.2075 55.0714 42.8412C55.0651 42.4904 54.9621 42.2084 54.7622 41.9952C54.5673 41.7768 54.2786 41.6478 53.896 41.6081C53.6686 41.5864 53.0158 41.5852 51.9376 41.6044L50.622 41.6279ZM50.7026 46.1393L50.7567 49.1727L52.877 49.1349C53.7024 49.1201 54.2256 49.0876 54.4466 49.0372C54.786 48.9692 55.0593 48.8147 55.2666 48.5736C55.4789 48.3272 55.5815 48.0029 55.5743 47.6005C55.5683 47.26 55.4806 46.9726 55.3112 46.7382C55.1419 46.5039 54.899 46.3353 54.5823 46.2326C54.2709 46.1298 53.5941 46.0877 52.552 46.1063L50.7026 46.1393ZM59.9452 50.9207L59.7427 39.5764L68.1542 39.4263L68.1885 41.3454L62.0675 41.4546L62.1124 43.9695L67.8078 43.8679L67.8419 45.7792L62.1465 45.8809L62.2016 48.9685L68.5392 48.8554L68.5734 50.7667L59.9452 50.9207ZM70.5157 50.7321L70.3132 39.3877L73.9889 39.3221C75.3818 39.2973 76.2908 39.3378 76.7158 39.4438C77.3689 39.6024 77.9198 39.9641 78.3685 40.529C78.8171 41.0886 79.0495 41.8198 79.0656 42.7226C79.078 43.4191 78.9621 44.0069 78.7178 44.486C78.4734 44.9651 78.1577 45.3449 77.7705 45.6253C77.3884 45.9005 76.9969 46.0855 76.5961 46.1804C76.0512 46.2985 75.2602 46.3668 74.2233 46.3853L72.7298 46.4119L72.8062 50.6912L70.5157 50.7321ZM72.638 41.266L72.6954 44.4851L73.949 44.4627C74.8518 44.4466 75.4544 44.3765 75.7566 44.2524C76.0589 44.1283 76.2929 43.9384 76.4586 43.6826C76.6295 43.4266 76.7119 43.131 76.706 42.7957C76.6986 42.383 76.5713 42.0447 76.324 41.7807C76.0768 41.5168 75.7668 41.3546 75.3942 41.2942C75.1199 41.2475 74.57 41.2315 73.7446 41.2462L72.638 41.266ZM80.9147 39.1986L83.0582 39.1603L83.1929 46.7129L87.6547 39.0783L89.9375 39.0375L90.1399 50.3819L87.9964 50.4201L87.8643 43.0146L83.4076 50.502L81.1171 50.5429L80.9147 39.1986ZM92.4769 50.3402L92.2745 38.9958L100.686 38.8457L100.72 40.7648L94.5992 40.8741L94.6441 43.389L100.339 43.2874L100.374 45.1987L94.6782 45.3004L94.7333 48.3879L101.071 48.2748L101.105 50.1862L92.4769 50.3402Z" fill="#B50D0D"/>
</svg>
