<svg width="124" height="91" viewBox="0 0 124 91" fill="none" xmlns="http://www.w3.org/2000/svg">
<path fill-rule="evenodd" clip-rule="evenodd" d="M61.615 19.9823C67.6062 12.3568 78.0592 0.319203 95.6958 0.193804C113.511 0.0671332 123.045 12.8731 123.128 24.5966C123.238 40.0215 113.398 53.3505 100.959 64.3256C88.5024 75.3165 73.1721 84.1059 62.1159 90.4348C50.9704 84.2637 35.5169 75.6932 22.9049 64.8806C10.3117 54.0834 0.283037 40.8957 0.173363 25.4708C0.0900069 13.7473 9.44103 0.80709 27.2563 0.68042C44.8925 0.555024 55.5161 12.4428 61.615 19.9823Z" fill="white"/>
<path d="M10.2378 33.9618L19.2587 33.8977L19.3393 45.2396L17.0493 45.2559L16.9822 35.8172L12.5413 35.8487L12.6085 45.2874L10.3184 45.3037L10.2378 33.9618ZM21.1718 39.6249C21.1636 38.4696 21.3295 37.4987 21.6695 36.7123C21.9232 36.1328 22.2703 35.6119 22.7106 35.1497C23.1561 34.6875 23.6436 34.3436 24.1733 34.118C24.8778 33.8139 25.6916 33.6585 26.6149 33.6519C28.286 33.64 29.6256 34.1489 30.6335 35.1785C31.6467 36.2081 32.1598 37.6461 32.1729 39.4926C32.1859 41.3236 31.6984 42.761 30.7103 43.8048C29.7222 44.8434 28.3952 45.3686 26.7292 45.3805C25.0426 45.3925 23.698 44.8888 22.6952 43.8695C21.6924 42.845 21.1846 41.4302 21.1718 39.6249ZM23.5309 39.5308C23.5401 40.8151 23.8436 41.7878 24.4414 42.4489C25.0393 43.1049 25.7946 43.4296 26.7076 43.4232C27.6205 43.4167 28.366 43.0838 28.9442 42.4246C29.5275 41.7603 29.8145 40.7705 29.8051 39.4552C29.7959 38.1555 29.5027 37.1879 28.9257 36.5524C28.3538 35.9168 27.5959 35.6024 26.652 35.6091C25.7081 35.6158 24.9497 35.9462 24.3766 36.6002C23.8035 37.249 23.5216 38.2259 23.5309 39.5308ZM34.0158 45.1352L33.9351 33.7933L36.2252 33.777L36.2569 38.2411L40.7442 38.2092L40.7125 33.7451L43.0025 33.7288L43.0831 45.0708L40.7931 45.087L40.7578 40.1279L36.2706 40.1598L36.3058 45.119L34.0158 45.1352ZM45.4086 33.7117L47.5517 33.6965L47.6053 41.2475L52.1472 33.6638L54.4295 33.6476L54.5102 44.9895L52.3671 45.0048L52.3145 37.6008L47.7793 45.0374L45.4892 45.0537L45.4086 33.7117ZM56.8157 44.9731L56.7351 33.6312L60.1624 33.6068L62.2754 41.3288L64.2551 33.5777L67.6902 33.5533L67.7708 44.8952L65.6432 44.9104L65.5797 35.9823L63.3919 44.9264L61.1869 44.942L58.8798 36.0299L58.9433 44.958L56.8157 44.9731ZM80.2732 44.8063L77.782 44.8241L76.7734 42.2548L72.2398 42.287L71.3219 44.87L68.8926 44.8873L73.2296 33.5139L75.6512 33.4967L80.2732 44.8063ZM76.0249 40.3491L74.4321 36.1514L72.9302 40.3711L76.0249 40.3491ZM81.5034 44.7976L81.4227 33.4557L83.7128 33.4394L83.7445 37.9034L88.2318 37.8715L88.2 33.4075L90.4901 33.3912L90.5707 44.7331L88.2807 44.7494L88.2454 39.7902L83.7582 39.8221L83.7934 44.7813L81.5034 44.7976ZM92.8962 33.3741L95.0392 33.3588L95.0929 40.9098L99.6348 33.3262L101.917 33.3099L101.998 44.6519L99.8547 44.6671L99.8021 37.2631L95.2669 44.6997L92.9768 44.716L92.8962 33.3741ZM104.334 44.6353L104.254 33.2933L112.663 33.2335L112.677 35.1522L106.557 35.1957L106.575 37.7101L112.269 37.6697L112.283 39.5806L106.589 39.6211L106.611 42.708L112.947 42.663L112.961 44.5739L104.334 44.6353Z" fill="#B50D0D"/>
</svg>
